<svg xmlns:xlink="http://www.w3.org/1999/xlink" xmlns="http://www.w3.org/2000/svg" width="27" height="102" viewBox="0 0 27 102" fill="none">
<path d="M18.6464 39.0441C18.6464 39.6158 18.9322 42.4806 18.9322 46.2097C18.6464 49.6462 18.3606 52.5144 17.7856 55.0935C15.489 65.6989 12.0491 66.5597 10.3275 76.0184C9.17753 82.0374 8.31672 87.7671 9.75252 91.7819C10.0383 92.0678 10.3275 94.0752 10.3275 96.6542C10.3275 98.3725 9.4667 100.094 8.0309 100.952C6.88428 101.527 5.7343 101.527 4.58768 100.952C4.30187 100.952 4.01605 100.666 3.72687 100.666C2.86607 100.094 2.00526 99.2333 1.43363 98.0867C0.283651 95.5076 0.283651 92.9286 0.858642 90.0603C0.858642 90.0603 1.14446 89.2029 1.43363 87.4813C1.43363 87.1955 1.43363 86.9097 1.43363 86.6205C2.00526 83.184 2.86607 77.4509 3.44106 71.7178C4.01605 66.2705 3.44106 67.1313 4.01605 55.3793C4.30187 45.6347 4.87686 46.4955 4.87686 41.909C4.58768 32.1644 2.58025 22.4198 2.58025 9.80699C2.58025 7.79956 2.86607 2.64145 5.7343 0.923198C6.59511 0.348207 7.74509 0.0623925 9.17752 0.348207C12.0491 0.634021 14.0565 1.20901 14.6282 1.49483C16.9248 2.35563 20.368 2.64145 26.6795 0.923198C19.2214 19.8374 18.0714 31.5894 18.6464 39.0441Z" fill="#D1A07C"/>
</svg>