<svg xmlns:xlink="http://www.w3.org/1999/xlink" xmlns="http://www.w3.org/2000/svg" width="14" height="40" viewBox="0 0 14 40" fill="none">
<path d="M9.95672 2.69866C10.2425 4.13109 10.8175 5.56353 11.1033 6.99596C11.3892 7.57096 11.3892 8.43176 11.3892 9.00339C11.3892 9.57838 10.8175 10.4358 10.2425 10.725C13.3966 18.4622 14.2574 26.7743 13.3966 34.8007C13.3966 35.9473 13.1108 37.0939 12.5358 37.9514C11.9641 38.8122 10.8175 39.673 9.95672 39.3871C8.80673 39.098 8.23511 38.2405 7.3743 37.3797C5.9385 35.3723 4.21689 33.3682 3.35609 31.075C2.49528 29.0676 1.92365 26.7743 1.34866 24.4811C0.487853 20.1838 -0.372952 15.8831 0.202039 11.5824C0.487854 10.15 0.773667 9.00339 1.34866 7.85677C2.49528 5.56353 4.50271 4.13109 5.65269 2.12367C7.3743 -0.741201 9.38173 0.405419 9.95672 2.69866Z" fill="#353535"/>
</svg>