<svg xmlns:xlink="http://www.w3.org/1999/xlink" xmlns="http://www.w3.org/2000/svg" width="19" height="14" viewBox="0 0 19 14" fill="none">
<path d="M9.45522 1.11864C6.87281 1.97944 4.86538 3.69769 2.85795 5.70512C1.99715 6.56592 1.13634 7.42337 0.850527 8.56999C0.56135 9.71661 0.56135 11.1524 1.42216 12.0098C2.28296 12.8707 3.71876 13.1565 4.57957 12.0098C4.57957 12.8707 5.44037 13.4456 6.30118 13.4456C7.16198 13.4456 8.02279 13.1565 8.59442 12.8707C10.0302 12.299 11.4626 11.724 12.8984 11.1524C14.3342 10.5774 15.4809 10.0058 16.6275 9.14498C17.7775 8.28417 18.6349 6.85174 18.9241 5.4193C19.4957 0.547008 12.8984 -0.313798 9.45522 1.11864Z" fill="#D1A07C"/>
</svg>