<svg xmlns:xlink="http://www.w3.org/1999/xlink" xmlns="http://www.w3.org/2000/svg" width="44" height="102" viewBox="0 0 44 102" fill="none">
<path d="M42.568 89.4307C42.568 89.7165 42.568 89.7165 42.2821 90.0056C41.9963 91.1523 41.4213 92.2989 40.8497 93.7313C40.2747 95.1638 39.4139 96.5962 38.2673 98.0286C37.4065 99.1752 36.5457 100.036 35.3957 100.611C34.8241 101.183 33.9633 101.468 33.3883 101.758C32.5275 102.043 29.945 102.043 25.0694 101.758C25.0694 101.758 18.7579 101.468 8.14244 99.4644C6.99582 99.1752 5.84584 98.8894 4.69922 98.3178C4.4134 98.0286 4.12423 98.0286 4.12423 97.7428C2.69179 96.0246 2.40262 93.7313 2.69179 91.1523C2.97761 83.9867 4.4134 77.6786 5.84584 71.9489C6.42083 69.9415 6.70664 67.934 6.99582 66.7874C6.99582 66.5016 7.28164 66.2158 7.28164 65.9266C6.70665 65.355 5.84584 64.4942 5.27421 63.6367C4.69922 63.0618 4.12423 62.2009 3.5526 61.3435C2.1168 58.7611 0.109375 54.7496 0.109375 44.1442C0.109375 38.4111 0.684367 33.253 2.1168 22.6476C3.5526 10.8956 4.4134 9.46313 5.84584 8.0307C6.99582 6.88408 8.42826 6.59826 10.1499 6.02327C10.4357 6.02327 10.4357 6.02327 10.7249 6.02327C13.0181 5.73746 16.1755 5.45164 21.0512 4.01921C23.062 3.44422 24.7836 2.87259 26.216 2.2976C26.5018 2.2976 26.791 2.01178 27.0768 2.01178C28.5126 1.43679 29.6592 0.865161 30.52 0.579346C30.8058 1.15098 31.095 2.01178 31.6667 3.1584C32.5275 5.16246 34.8241 10.8956 37.6923 21.2152C38.5531 24.655 39.4139 28.0949 39.9889 31.5347C41.1355 37.2645 41.4213 43.2834 41.7071 49.0165V49.3057C41.7071 49.5915 41.7071 49.5915 41.7071 49.8773C41.7071 50.7381 41.7071 51.5955 41.7071 52.4564C41.7071 54.4638 41.7071 56.182 41.9963 58.1895C42.2821 63.9226 42.568 68.509 42.8571 71.9489C43.7179 80.2577 44.5787 83.4117 42.568 89.4307Z" fill="#4A64A5"/>
</svg>