<svg xmlns:xlink="http://www.w3.org/1999/xlink" xmlns="http://www.w3.org/2000/svg" width="30" height="80" viewBox="0 0 30 80" fill="none">
<path d="M0.866211 1.82009C2.30201 1.82009 3.16281 2.96671 3.73444 4.39914C4.30943 5.54576 4.30944 6.9782 4.02362 8.12482C4.02362 9.27144 4.02362 10.4181 4.02362 11.2789C4.02362 12.1397 4.02362 12.9971 4.59525 13.5721C6.03105 15.2904 9.18846 13.2863 11.1959 14.7187C12.0567 15.2904 12.3425 16.437 12.3425 17.5836C12.3425 18.7302 11.7675 19.591 11.4817 20.7376C10.6209 23.8917 10.9101 27.6174 11.7675 30.768C12.6283 33.9221 14.0641 37.362 14.6391 40.516C17.7932 54.5579 8.32765 64.0167 14.3499 76.0545C15.2107 77.7761 16.0715 78.9227 16.6465 79.4944C16.9323 78.0619 17.2215 76.6295 17.5073 75.1971C17.7932 73.7613 18.0823 72.3288 18.3681 71.1822C20.9506 70.6106 24.6796 69.464 27.262 66.5957C31.8519 61.4376 29.2694 55.9937 28.9836 39.941C28.6945 28.189 29.5553 16.1512 25.8262 11.2789C24.9654 10.4181 23.2438 7.839 20.3756 7.839C19.5148 7.839 18.654 8.12481 18.0823 8.41399C18.0823 6.40657 17.5073 4.97413 16.9323 4.39914C14.0641 0.673465 7.75266 -0.473155 0.866211 1.82009Z" fill="#353535"/>
</svg>