<svg xmlns:xlink="http://www.w3.org/1999/xlink" xmlns="http://www.w3.org/2000/svg" width="29" height="67" viewBox="0 0 29 67" fill="none">
<path d="M27.2567 65.9488C21.8061 61.0732 16.6412 55.9151 11.4797 50.7569C10.3298 49.6103 8.03652 47.8887 7.46153 46.4563C7.17571 45.5955 8.03652 42.159 8.03652 41.0124C8.03652 39.2907 8.03652 37.2833 8.03652 35.5651C7.75071 23.2414 4.30748 11.4894 0.864258 0.0231934C1.15007 0.0231934 1.15007 0.0231934 1.43589 0.0231934C5.16829 10.3428 8.03652 21.234 8.89733 32.411C9.18314 35.8509 9.18314 39.2907 8.89733 42.4448C8.89733 44.163 8.32233 45.5955 9.18314 47.0313C10.0439 48.4637 11.7656 49.8961 12.9122 51.0428C17.7912 55.9151 22.6669 60.7873 27.8317 65.3738C28.4067 65.6596 27.5459 66.2346 27.2567 65.9488Z" fill="#353535"/>
</svg>