<svg xmlns:xlink="http://www.w3.org/1999/xlink" xmlns="http://www.w3.org/2000/svg" width="18" height="52" viewBox="0 0 18 52" fill="none">
<path d="M17.9962 51.1704C14.553 44.5765 11.6848 37.7001 9.10237 30.8204C7.09494 25.6623 5.08415 20.215 3.36254 15.0569C2.79091 13.0495 1.64093 12.1887 2.79091 10.4704C3.07673 10.1846 4.79834 8.17718 4.51253 7.89137C4.22335 6.74475 1.0693 7.03056 0.494311 7.03056C0.208496 7.03056 0.208496 6.74475 0.208496 6.45557C0.783487 4.73732 1.35512 3.01907 2.21592 1.01164C2.50174 1.01164 2.79091 0.72583 3.07673 0.72583C3.07673 1.01164 2.79091 1.01164 2.79091 1.29746C2.50174 1.87245 0.783487 5.02313 1.0693 5.59813C1.64093 6.74475 4.22335 6.16976 5.37333 6.16976C5.65915 6.16976 5.94496 6.45557 5.65915 6.74475C4.22335 9.03799 2.79091 10.4704 3.65172 13.3353C4.22335 15.6285 5.37333 17.9218 6.23414 20.215C7.95575 24.5157 9.38818 28.813 11.1098 33.1137C13.1172 37.986 15.4138 42.8582 17.7104 47.4447C17.9962 48.8772 17.9962 50.0238 17.9962 51.1704Z" fill="#353535"/>
</svg>