<svg xmlns:xlink="http://www.w3.org/1999/xlink" xmlns="http://www.w3.org/2000/svg" width="79" height="113" viewBox="0 0 79 113" fill="none">
<path d="M78.5332 84.5962C75.3758 90.9009 71.9325 97.7807 65.6211 100.649C63.3278 101.796 61.0312 102.081 59.0238 103.228C57.3022 104.089 56.1556 105.521 54.7198 106.954L54.434 107.239C53.859 107.814 53.2873 108.672 52.4265 109.247C50.4158 111.254 47.5475 112.973 44.6793 112.687C42.0969 112.401 39.8003 110.393 37.507 109.247C37.2212 108.961 36.932 108.961 36.932 108.961C36.3604 108.672 35.7854 108.386 35.4996 108.386C32.0564 107.239 28.6132 108.672 25.1699 109.247C17.1369 110.965 9.10379 109.533 1.07073 108.386C0.20992 85.7428 7.09637 62.8138 3.93896 40.1705C3.07815 34.7233 1.93153 28.9935 3.07815 23.5462C3.65314 20.6814 4.79976 18.0989 5.08894 15.2341C5.37475 12.3692 4.22813 9.21516 1.64572 8.06854C5.08894 6.92192 8.5288 6.06111 11.972 4.91449C13.6936 5.48948 16.2761 6.06111 19.1443 5.48948C21.7267 4.91449 22.5875 3.48206 25.4557 2.33544C27.1774 1.47463 29.7598 0.617188 33.4888 0.617188C32.9172 2.62125 32.3422 4.62868 32.0564 6.92192C32.3422 8.92934 32.3422 12.08 32.3422 16.0949C32.3422 24.407 31.4814 26.1253 31.4814 30.7118C31.4814 39.5956 34.6388 53.355 41.5219 55.6482C43.2435 56.2199 46.1151 56.2199 48.6941 58.5131C49.8441 59.3739 50.4158 60.5205 51.2766 61.953C54.434 66.8253 58.4488 71.4118 63.042 74.8516C68.4927 78.0057 74.2291 80.5847 78.5332 84.5962Z" fill="#EAEAEA"/>
</svg>