<svg xmlns:xlink="http://www.w3.org/1999/xlink" xmlns="http://www.w3.org/2000/svg" width="59" height="80" viewBox="0 0 59 80" fill="none">
<path d="M56.9909 5.6477C58.4267 8.22675 58.4267 11.095 58.1375 13.674C57.8517 16.5389 56.7051 19.118 56.1301 21.7004C55.2693 24.8511 54.9835 28.2909 53.2619 31.1592C51.5403 34.024 48.3829 36.3173 45.2288 35.7423C46.0896 39.1821 44.6538 42.622 43.5072 46.0619C42.3606 48.9267 41.2106 51.795 39.2032 53.8024C37.7674 55.2348 35.76 55.8064 34.3275 57.2389C32.0309 58.9605 30.5951 61.2537 28.5877 63.2578C24.5728 67.2727 18.5472 68.9909 13.0965 68.1335C13.3824 69.5659 13.9574 71.8591 13.6682 74.724C13.3824 76.4456 13.0965 77.8781 12.8107 79.0247C9.65332 78.7355 8.21752 77.8781 7.35672 77.0173C6.2101 75.8706 6.49591 75.299 5.06348 72.7166C3.34187 70.1375 2.76687 69.8517 1.90607 68.1335C1.33444 66.9868 0.473633 64.9794 0.473633 62.4004C0.759447 62.1145 1.62025 61.2537 2.76687 60.6787C4.48849 60.1071 5.92428 60.3929 6.49591 60.3929C6.78509 52.0808 9.36751 48.0693 11.9499 46.0619C13.3824 44.9152 15.104 44.0544 16.2506 42.0504C17.6864 39.4713 17.4006 36.3173 18.2614 33.449C19.1222 30.0125 21.7012 27.1443 24.5728 24.5653C27.4411 22.272 30.3093 19.9788 32.3167 16.8281C34.3275 13.9599 35.4741 10.2342 37.1957 7.36931C40.9248 0.7754 52.6869 -2.37865 56.9909 5.6477Z" fill="#EAEAEA"/>
</svg>