<svg xmlns:xlink="http://www.w3.org/1999/xlink" xmlns="http://www.w3.org/2000/svg" width="6" height="3" viewBox="0 0 6 3" fill="none">
<path d="M1.03804 2.04826C1.61303 1.76245 2.47384 1.47663 3.04883 1.47663C3.33464 1.47663 3.62046 1.47663 4.19545 1.47663C4.48126 1.47663 4.48126 1.47663 4.76708 1.47663C5.05625 1.47663 5.05625 1.47663 5.34207 1.47663C5.34207 1.47663 5.34207 1.47663 5.34207 1.18746C5.34207 1.18746 5.05625 1.18746 4.76708 0.901642C4.48126 0.901642 4.48126 0.901642 4.19545 0.901642C3.90963 0.901642 3.33464 0.901642 3.04883 0.901642C2.18802 0.901642 1.61303 1.18746 1.03804 1.47663C0.466409 1.76245 0.752224 2.04826 1.03804 2.04826Z" fill="#353535"/>
</svg>