<svg xmlns:xlink="http://www.w3.org/1999/xlink" xmlns="http://www.w3.org/2000/svg" width="23" height="116" viewBox="0 0 23 116" fill="none">
<path d="M17.2762 0.502256C18.4229 5.94618 20.7195 13.4009 18.9979 28.0178C18.137 36.0441 17.2762 38.6232 17.2762 44.9279C17.5621 51.2326 18.4229 51.5185 18.712 58.1124C19.2837 68.7178 16.7012 69.5786 17.5621 77.6016C18.4229 84.1955 19.5728 83.3347 21.5803 93.3684C22.4411 98.2407 21.8661 103.399 21.2945 108.557C21.0053 110.564 20.7195 112.858 19.2837 114.004C17.5621 115.722 14.408 115.151 12.6864 113.429C10.9648 111.711 10.3898 109.132 10.3898 106.839C10.3898 104.545 10.9648 101.966 11.2506 99.6732C13.2614 84.7671 4.93914 70.7252 3.21753 55.8191C2.35672 48.9394 3.21753 42.063 3.21753 35.1833C3.21753 29.1644 2.6459 22.8563 1.49592 16.8374C0.924289 13.6867 0.349297 10.5327 0.924289 7.37862C1.78509 4.22793 4.36751 1.93469 7.52156 1.3597C9.24317 0.78807 16.9904 -0.35855 17.2762 0.502256Z" fill="#D1A07C"/>
</svg>