<svg xmlns:xlink="http://www.w3.org/1999/xlink" xmlns="http://www.w3.org/2000/svg" width="56" height="141" viewBox="0 0 56 141" fill="none">
<path d="M54.5061 0.80249C56.2277 30.0363 53.9311 49.8146 51.6345 62.7099C50.7771 67.5856 49.3413 73.8903 48.1947 83.6349C46.1839 99.1126 47.0447 104.846 45.0373 117.744C44.1765 123.188 42.744 130.929 39.8724 140.388C38.7258 139.527 36.7184 138.38 34.136 137.805C30.6927 136.948 27.8245 137.805 26.3887 138.094C26.1029 136.373 25.8171 133.794 25.8171 130.64C25.8171 126.342 26.6745 123.188 26.9637 122.042C28.6853 114.304 27.5353 111.15 28.6853 95.3869C29.2569 86.4997 29.8319 86.7889 30.1177 80.77C30.4069 73.8903 30.4069 63.5707 27.8245 50.6721C26.9637 58.9842 25.5279 65.2923 24.0955 69.8754C22.3739 76.4693 21.513 77.3301 21.2239 81.3416C20.9381 84.2099 21.2239 86.2139 22.3739 98.2518C22.6597 100.831 22.6597 102.838 22.9455 103.985C21.513 108.857 20.0772 113.444 18.6415 118.316C16.9232 116.023 14.3408 112.583 12.33 107.711C11.7584 106.278 11.7584 106.278 11.1834 104.846C8.60096 97.966 6.01854 95.3869 4.29693 91.3754C3.43612 89.368 3.43612 88.5072 2.57532 77.9018C1.4287 65.2923 1.4287 65.0031 1.14288 60.9916C0.56789 50.3863 0.56789 30.8971 2.2895 6.24641C6.30772 5.09979 11.7584 3.66736 18.0698 2.52074C23.5205 1.65993 27.5353 0.80249 28.6853 0.80249C37.0042 2.52074 46.1839 1.0883 54.5061 0.80249Z" fill="#4A64A5"/>
</svg>