<svg xmlns:xlink="http://www.w3.org/1999/xlink" xmlns="http://www.w3.org/2000/svg" width="27" height="40" viewBox="0 0 27 40" fill="none">
<path d="M7.26829 5.69231C5.83249 7.69973 4.97169 10.2788 2.96426 11.4254C2.38927 11.7112 1.81764 11.7112 1.52847 11.997C0.956838 12.2862 0.66766 12.8578 0.956837 13.4328C1.24265 14.0045 2.10346 14.2903 2.67845 14.5795C3.25008 15.1511 3.25008 15.7261 3.25008 16.2977C3.25008 16.8727 2.96426 16.8727 2.67845 17.4443C2.67845 17.7301 2.67845 17.7301 2.67845 18.0193C2.67845 18.5909 2.10346 18.5909 1.81764 18.8768C1.24265 19.4518 1.52847 20.0234 1.52847 20.8842C1.52847 21.17 1.52847 22.6024 2.67845 23.7491C3.53925 24.6099 4.40006 24.6099 5.54668 25.1849C8.1291 26.3281 9.85071 28.9105 10.7115 31.4896C11.5723 34.0686 11.5723 36.9335 11.5723 39.8017C16.1622 39.5159 20.752 38.9409 25.3419 38.6551C25.6277 35.2153 25.3419 31.7754 24.1952 28.6214C23.3344 26.3281 22.4736 24.0382 23.0486 21.745C23.6202 20.3092 24.481 19.1626 25.3419 18.0193C27.0635 15.1511 27.0635 11.4254 25.6277 8.27136C24.481 5.40649 21.8986 3.11325 19.3162 1.395C17.023 -0.0407951 13.8656 1.10583 11.5723 2.25245C9.56153 3.11325 8.41491 4.25987 7.26829 5.69231Z" fill="#D1A07C"/>
</svg>