<svg xmlns:xlink="http://www.w3.org/1999/xlink" xmlns="http://www.w3.org/2000/svg" width="60" height="79" viewBox="0 0 60 79" fill="none">
<path d="M51.5397 1.35039C47.5215 0.20377 43.5067 1.06121 40.3493 3.35445C38.3418 4.78689 37.481 6.5085 36.6202 8.80174C34.327 13.3882 31.1696 18.2605 27.1547 21.7004C24.2831 24.2794 21.4149 26.2835 19.4075 29.4375C18.2609 31.1592 17.4 33.449 17.1109 35.4565C16.8251 37.4639 17.1109 39.4713 15.9642 41.1896C14.8176 43.197 12.8102 44.0544 11.3744 45.4902C9.65279 46.9227 8.50617 48.6409 7.93118 50.3625C7.35619 52.0808 6.78456 53.8024 6.49538 55.5206C6.49538 56.3814 6.49538 57.2389 6.20957 58.0997C5.92375 59.8213 5.92375 59.5321 4.48796 59.8213C1.90554 60.3929 -0.387701 61.5396 0.183927 64.4044C0.183927 65.8402 1.04473 67.2727 1.61972 68.1335C2.19472 68.9909 3.05552 69.5659 3.62715 70.1375C5.06295 71.57 5.06295 73.2916 5.63458 75.0098C6.78456 77.8781 9.93861 78.4497 12.8102 78.4497C12.8102 78.4497 13.096 78.4497 13.096 78.1639C13.6676 76.4456 14.2426 74.4382 14.2426 72.4308C14.2426 71.2841 13.9568 70.4233 13.9568 69.2801C13.9568 67.8443 13.6676 68.1335 14.8176 68.1335C16.5392 67.8443 18.5467 68.1335 20.2683 67.8443C22.5615 67.2727 24.5723 66.6977 26.2939 65.2652C28.8763 63.547 30.5946 61.2537 32.3162 58.6747C34.8986 54.949 39.2026 54.6598 41.7851 51.22C43.5067 48.6409 44.6533 45.4902 45.2283 42.622C45.7999 40.9038 45.5141 37.1781 46.9499 36.0315C48.0965 35.1707 50.1039 34.5957 51.2539 33.7382C56.1296 30.0125 56.7046 21.9862 58.137 16.2531C58.712 13.674 59.8586 11.095 59.287 8.22675C58.137 4.78689 55.2688 2.20783 51.5397 1.35039C51.2539 1.06121 50.9647 1.63621 51.2539 1.92202C61.0086 4.78689 57.5654 13.9599 55.8438 20.8396C54.983 23.7044 54.408 27.1443 53.2614 30.0125C51.8256 33.449 48.3823 35.1707 44.9425 36.3173C44.6533 36.3173 44.6533 36.6031 44.6533 36.6031C44.6533 40.9038 43.7925 45.2011 42.0709 48.9267C41.2101 50.9342 40.0634 52.9416 38.3418 54.0882C36.9094 54.949 35.1878 55.2348 33.752 56.3814C31.4554 58.0997 30.3088 61.2537 28.0155 63.2578C23.9973 67.2727 18.2609 68.9909 12.8102 68.1335C12.521 68.1335 12.521 68.1335 12.521 68.4193C13.096 70.1375 13.096 71.8591 13.096 73.8632C13.096 76.1564 13.096 78.4497 10.2278 78.4497C7.07037 78.1639 6.20957 76.1564 5.34876 73.5774C4.48796 71.2841 3.05552 70.4233 1.61972 68.4193C1.04473 67.5585 0.473105 66.4118 0.183927 65.551C-0.676879 61.2537 2.76634 60.3929 5.92375 60.6787C5.92375 60.6787 6.20957 60.6787 6.20957 60.3929C6.20957 56.3814 6.78456 52.0808 8.79199 48.6409C10.5136 45.776 13.6676 44.9152 15.3893 42.3362C16.8251 40.6146 16.8251 38.8963 17.1109 36.6031C17.4 32.3058 19.6933 28.5767 22.5615 25.7119C24.8581 23.4186 27.4405 21.7004 29.7338 19.4071C32.0304 16.8281 34.0378 13.9599 35.4736 11.095C36.6202 9.37337 37.1952 7.08013 38.3418 5.36188C41.2101 1.6362 46.6607 0.489585 50.9647 1.63621C51.8256 1.63621 51.8256 1.35039 51.5397 1.35039Z" fill="#353535"/>
</svg>