<svg xmlns:xlink="http://www.w3.org/1999/xlink" xmlns="http://www.w3.org/2000/svg" width="16" height="23" viewBox="0 0 16 23" fill="none">
<path d="M15.7258 18.6363C15.7258 18.9221 15.7258 18.9221 15.7258 18.6363C15.1508 20.0688 14.5792 20.9296 14.29 22.0762C14.29 22.362 14.0042 22.362 13.7184 22.0762C11.4218 17.7755 9.12857 13.4749 6.54615 9.46337C4.53536 6.30932 2.52793 3.44445 0.520508 0.579582C0.806322 0.579582 0.806322 0.290405 1.0955 0.290405C3.10293 3.15864 5.11035 6.02351 6.83196 8.89174C9.41438 12.9032 11.711 16.9147 13.7184 21.2154C14.29 20.0688 14.865 18.9221 15.44 17.7755C15.44 18.0613 15.7258 18.3505 15.7258 18.6363Z" fill="#353535"/>
</svg>