<svg xmlns:xlink="http://www.w3.org/1999/xlink" xmlns="http://www.w3.org/2000/svg" width="21" height="17" viewBox="0 0 21 17" fill="none">
<path d="M19.8908 10.551C19.8908 10.8402 19.8908 10.8402 19.8908 10.551C19.6017 11.126 19.3158 11.4118 19.3158 11.6976C19.03 11.9868 18.455 12.2726 18.1692 12.5584C18.1692 12.5584 17.8834 12.5584 17.8834 12.8442C17.8834 12.8442 17.8834 12.8442 17.5942 13.1334C17.3084 13.4192 17.3084 13.9908 17.0226 14.5658C17.0226 14.8517 16.7334 14.8517 16.7334 15.1375C16.7334 15.1375 16.7334 15.4233 16.4476 15.4233C15.5868 16.2841 14.4402 16.8591 13.0044 16.8591C11.5686 16.8591 9.85034 16.2841 8.70036 15.4233C5.83213 13.705 3.24971 11.126 0.956469 8.83274C0.667292 8.54692 0.381478 7.97193 0.0956633 7.68612C-0.193514 6.5395 1.24228 5.39288 1.81727 4.53207C2.67472 3.38545 3.8247 2.23883 4.68551 1.38139C4.97132 1.09221 5.25714 0.806396 5.54631 0.806396C5.83213 0.806396 6.40712 0.806396 6.69293 0.806396C9.27535 1.38139 11.8578 2.52801 14.4402 3.67463C15.5868 4.24626 16.7334 4.82125 17.8834 5.67869C18.7442 6.5395 19.6017 7.68612 19.8908 8.83274C20.4625 8.83274 20.1766 9.97936 19.8908 10.551Z" fill="#D1A07C"/>
</svg>