<svg xmlns:xlink="http://www.w3.org/1999/xlink" xmlns="http://www.w3.org/2000/svg" width="16" height="99" viewBox="0 0 16 99" fill="none">
<path d="M10.9495 13.5157C11.2353 15.5198 10.6603 16.3806 10.0887 19.2454C8.93868 25.5535 10.3745 30.7116 10.9495 33.2907C11.8103 36.4447 12.3819 37.5914 13.5285 39.8846C16.1109 46.4751 14.9643 49.3434 15.5393 65.6785C15.8251 70.5508 16.1109 74.8515 15.8251 82.017C15.8251 85.1711 15.5393 90.9008 12.0961 95.7765C11.5211 96.6339 10.3745 98.3555 9.51367 98.0663C8.07788 97.7805 8.93868 92.9082 9.22786 85.1711C9.22786 80.2988 9.22786 74.2798 7.50625 67.4001C5.78463 60.5204 4.34884 61.092 3.77721 55.6481C3.20222 51.0616 4.34884 50.2008 5.20964 40.742C5.49546 36.4447 5.20964 37.8772 5.49546 28.4184C5.78464 22.1137 5.78464 20.6812 5.49546 18.0988C4.92383 15.2339 4.06302 12.9407 2.9164 10.0758C2.0556 7.49342 0.905613 5.48935 0.333984 3.76774C0.333984 2.62112 0.619799 1.4745 0.619799 0.327881C3.48803 2.9103 5.49546 5.20354 6.93125 6.92179C9.79949 10.6475 10.6603 12.0799 10.9495 13.5157Z" fill="#4A64A5"/>
</svg>