<svg xmlns:xlink="http://www.w3.org/1999/xlink" xmlns="http://www.w3.org/2000/svg" width="40" height="53" viewBox="0 0 40 53" fill="none">
<path d="M38.8579 36.9909C38.8579 38.4233 38.5688 39.5699 38.5688 41.0057C37.9971 45.5922 36.5613 50.1753 31.6857 51.6111C31.3965 51.6111 31.1107 51.8969 31.1107 51.8969C28.2425 52.7577 25.085 52.1828 22.2168 51.8969C18.7736 51.6111 15.3304 51.3219 11.6013 51.0361C9.30808 50.7503 6.72567 50.7503 4.42906 50.4645C3.28244 50.1753 2.13582 49.8895 0.98584 49.3179C5.00406 49.6037 9.30808 50.1753 13.3229 50.4645C16.4803 50.7503 19.3486 51.0361 22.5026 51.3219C25.9459 51.6111 29.6749 52.1828 32.5465 50.4645C33.1181 50.1753 33.6931 49.6037 34.2681 49.3179C35.4147 48.1713 36.2755 46.7355 36.8505 45.0172C38.283 40.7165 37.9971 35.2726 37.9971 31.5469C38.283 21.2274 37.7113 10.622 37.1363 0.30575C37.1363 0.016573 37.4221 0.016573 37.4221 0.30575C37.4221 0.591564 37.4221 0.591563 37.4221 0.877378C37.9971 5.74967 37.9971 10.9078 38.2829 16.0693C38.2829 18.3625 38.5688 20.6557 38.5688 23.2348C39.1438 27.5321 39.1438 32.1186 38.8579 36.9909Z" fill="#353535"/>
</svg>