<svg xmlns:xlink="http://www.w3.org/1999/xlink" xmlns="http://www.w3.org/2000/svg" width="21" height="70" viewBox="0 0 21 70" fill="none">
<path d="M20.6531 39.7232C20.6531 49.182 18.6456 58.355 16.924 67.5279C16.349 68.0996 14.3416 69.8212 11.1842 69.8212C9.17677 69.8212 7.74434 69.2462 6.59436 68.6746C6.02273 68.3854 5.73355 68.0996 5.44774 67.8138C1.7187 60.6482 1.14371 52.0502 1.14371 44.0239C1.14371 36.2834 -0.292091 29.1178 1.42952 19.6624C2.00451 16.5084 2.86532 13.9293 3.15113 11.9219C3.15113 11.9219 3.15113 11.9219 3.15113 11.6361C3.15113 11.3503 3.15113 11.3503 3.44031 11.0611C3.72613 10.7753 4.01194 10.4895 4.30112 10.2036L4.58693 9.91447C5.16192 9.34284 6.02273 8.76785 6.59436 8.48203C6.59436 7.33541 6.59436 5.90298 6.59436 4.47054C6.59436 3.03811 6.59436 1.60231 6.59436 0.455688C7.45516 1.31649 8.60178 2.46311 9.75177 3.60974C10.0376 3.89555 10.3234 4.47054 10.6126 4.75636C10.6126 5.04217 10.8984 5.04217 10.8984 5.32798C10.8984 5.61716 11.1842 5.61716 11.4734 5.90298C11.4734 7.33541 11.4734 9.34284 12.3342 11.3503C12.9058 12.4935 13.4808 13.0685 13.4808 13.3543C19.2173 21.0949 20.9389 30.5536 20.6531 39.7232Z" fill="#EAEAEA"/>
</svg>