<svg xmlns:xlink="http://www.w3.org/1999/xlink" xmlns="http://www.w3.org/2000/svg" width="7" height="11" viewBox="0 0 7 11" fill="none">
<path d="M6.10365 0.35515C6.10365 0.0693361 5.81784 0.0693359 5.52866 0.0693359C4.95703 0.0693359 4.66785 0.640965 4.38204 0.926779C3.52123 1.78759 2.94961 2.64839 2.37461 3.79501C1.22799 5.80244 0.367188 8.09232 0.367188 10.3856C0.367188 10.6747 0.653002 10.6747 0.653002 10.3856C0.938816 9.52811 0.938816 8.66731 1.22799 7.8065C1.51381 6.94906 1.79962 6.08825 2.0888 4.94163C2.37461 4.08083 2.94961 3.22002 3.52123 2.64839C3.81041 2.36258 4.09623 1.78759 4.38204 1.50177C4.38204 1.50177 5.24285 0.35515 5.52866 0.640965C5.81784 0.640965 6.10365 0.35515 6.10365 0.35515Z" fill="#353535"/>
</svg>