<svg xmlns:xlink="http://www.w3.org/1999/xlink" xmlns="http://www.w3.org/2000/svg" width="26" height="81" viewBox="0 0 26 81" fill="none">
<path d="M24.8835 77.6746C24.8835 78.8212 24.5943 79.6786 24.5943 80.8252C21.1511 81.1144 17.4221 81.1144 15.4146 78.532C14.5538 77.3854 13.9788 75.9529 13.693 74.5205C7.38156 51.8773 3.36335 28.9482 0.495117 5.73001C1.93091 4.87257 3.36335 4.29757 4.79915 3.43677C5.37414 3.15095 5.94577 2.86514 6.80657 2.29015C7.09575 2.29015 7.09575 2.00433 7.38156 2.00433C8.24237 1.4327 9.10318 1.14353 9.6748 0.571899C13.118 4.58339 16.2754 8.30906 19.7187 12.3239C20.0045 13.4705 20.5795 15.1888 21.1511 17.482C21.1511 18.057 21.4403 18.6286 21.7261 19.4895C21.7261 19.7753 21.7261 20.0611 22.0119 20.3503C23.1619 25.5084 25.1693 36.6854 25.7443 53.0239C25.4551 59.6144 25.4551 67.9266 24.8835 77.6746Z" fill="#EAEAEA"/>
</svg>