<svg xmlns:xlink="http://www.w3.org/1999/xlink" xmlns="http://www.w3.org/2000/svg" width="31" height="49" viewBox="0 0 31 49" fill="none">
<path d="M13.8726 0.202913C8.42191 0.774542 2.97126 4.50022 1.53546 9.94751C0.388841 14.534 2.11045 19.4063 1.24965 24.2786C0.963833 26.286 0.103027 28.2901 0.103027 30.2975C0.103027 32.5907 0.963833 34.5982 2.11045 36.3164C4.11788 40.6171 6.12867 44.6286 8.1361 48.9292C10.4293 48.6401 12.4401 48.6401 14.7334 48.3542C16.455 48.3542 17.8908 48.0684 19.3232 47.2076C20.759 46.3502 21.9056 44.9144 21.6198 43.4819C21.334 42.3353 20.4732 41.1887 19.3232 40.3279C18.1766 39.4705 17.03 38.8955 16.455 37.7488C15.8833 36.6022 15.5942 35.1698 16.7408 34.309C18.1766 34.884 19.3232 35.7448 20.759 35.7448C22.1948 35.7448 23.9164 35.4556 24.7772 34.309C25.063 33.7374 24.7772 33.7374 25.6347 32.3049C26.4955 30.2975 26.7846 30.0117 26.7846 29.7259C26.7846 29.4367 26.7846 29.1509 26.7846 28.5792C27.0705 28.2901 27.3563 28.0043 27.6455 27.7184C28.2171 26.8576 27.9313 25.9968 27.9313 25.711C28.2171 25.711 30.2279 25.9968 30.7995 25.1394C31.0887 24.8502 30.7995 24.5644 30.7995 24.2786C29.9387 21.6995 29.0779 20.2671 28.7921 18.8313C28.5063 17.113 29.6529 16.5414 30.2279 14.8198C31.6603 11.3799 30.2279 6.79346 27.3563 4.50022C23.6272 1.63535 18.7516 -0.372078 13.8726 0.202913Z" fill="#D1A07C"/>
</svg>