<svg xmlns:xlink="http://www.w3.org/1999/xlink" xmlns="http://www.w3.org/2000/svg" width="19" height="23" viewBox="0 0 19 23" fill="none">
<path d="M13.4396 5.6733C13.7254 6.81992 14.0112 7.96654 14.3004 9.11316C14.872 10.5456 15.7328 11.978 16.5936 13.4105C17.4545 14.8463 18.0294 16.2787 18.0294 17.7111C18.0294 19.1436 17.4545 20.8652 16.022 21.7226C14.872 22.2976 13.7254 22.2976 12.2896 22.2976C9.7072 22.2976 6.83897 22.2976 4.25655 22.2976C3.39575 22.2976 2.24913 22.2976 1.96331 21.4368C1.67413 20.8652 1.67413 20.2902 1.67413 19.7186C1.67413 18.2828 1.67413 16.8503 1.38832 15.1321C1.10251 12.8388 0.241699 10.8314 0.241699 8.53817C0.241699 6.81992 0.527514 5.09831 1.38832 3.66587C2.53494 2.23344 4.25655 1.66181 5.97816 1.08681C9.42139 0.515186 12.2896 2.51925 13.4396 5.6733Z" fill="#353535"/>
</svg>